<?xml version="1.0" encoding="iso-8859-1"?>
<!-- Generator: Adobe Illustrator 19.0.0, SVG Export Plug-In . SVG Version: 6.00 Build 0)  -->
<svg version="1.1" id="Capa_1" xmlns="http://www.w3.org/2000/svg" xmlns:xlink="http://www.w3.org/1999/xlink" x="0px" y="0px"
	 viewBox="0 0 511.999 511.999" style="enable-background:new 0 0 511.999 511.999;" xml:space="preserve">
<g>
	<path style="fill:#92F7EA;" d="M324.128,273.403c-2.468-2.468-4.321-5.615-5.236-9.246c-4.308-17.115-13.225-32.802-25.786-45.362
		c-12.561-12.561-28.247-21.479-45.362-25.786c-10.709-2.698-17.202-13.561-14.508-24.267c2.696-10.708,13.561-17.203,24.267-14.508
		c24.12,6.071,46.208,18.619,63.876,36.288c17.668,17.668,30.215,39.757,36.287,63.877c2.696,10.707-3.8,21.572-14.508,24.267
		C336.084,280.446,328.937,278.212,324.128,273.403z"/>
	<path style="fill:#92F7EA;" d="M238.494,115.228c-3.998-3.998-6.285-9.657-5.799-15.737c0.88-11.007,10.516-19.215,21.523-18.335
		c46.065,3.684,89.453,23.731,122.173,56.45c32.119,32.119,52.095,74.678,56.249,119.841c1.012,10.995-7.081,20.728-18.077,21.74
		c-10.996,1.012-20.729-7.08-21.74-18.077c-3.302-35.882-19.179-69.703-44.707-95.231c-26.006-26.006-60.486-41.939-97.087-44.866
		C246.103,120.618,241.735,118.468,238.494,115.228z"/>
	<path style="fill:#92F7EA;" d="M244.849,44.126c-3.67-3.67-5.917-8.756-5.855-14.356c0.12-11.04,9.168-19.892,20.209-19.772
		c64.527,0.706,125.197,26.228,170.836,71.865c45.637,45.637,71.158,106.306,71.864,170.832
		c0.121,11.041-8.732,20.089-19.772,20.209c-11.042,0.122-20.09-8.733-20.209-19.772c-0.592-54.011-21.954-104.794-60.156-142.996
		c-38.202-38.202-88.986-59.566-142.998-60.156C253.326,49.92,248.415,47.692,244.849,44.126z"/>
</g>
<g>
	<circle style="fill:#898998;" cx="158.268" cy="353.823" r="148.172"/>
	<g>
		<polyline style="fill:#EDF2FA;" points="102.649,216.448 158.125,250.391 158.125,301.795 111.807,335.446 57.758,323.312 
			46.989,256.001 		"/>
		<polyline style="fill:#EDF2FA;" points="11.028,370.449 57.758,323.312 111.807,335.446 129.499,389.896 96.094,441.3 
			30.378,428.686 		"/>
		<polyline style="fill:#EDF2FA;" points="208.601,214.422 158.418,250.391 158.418,301.795 204.736,335.446 258.785,323.312 
			266.951,253.116 		"/>
		<polyline style="fill:#EDF2FA;" points="305.428,371.209 258.785,323.312 204.736,335.446 187.044,389.896 220.449,441.3 
			285.994,428.989 		"/>
		<polyline style="fill:#EDF2FA;" points="187.048,499.204 220.449,441.3 187.044,389.896 129.499,389.896 96.094,441.3 
			129.499,499.204 		"/>
	</g>
</g>
<path d="M328.449,183.452c-18.947-18.946-42.634-32.401-68.504-38.913c-7.767-1.956-15.832-0.77-22.707,3.342
	c-6.875,4.11-11.738,10.652-13.694,18.42c-4.035,16.032,5.727,32.361,21.763,36.401c3.37,0.848,6.723,1.909,9.968,3.156
	c5.154,1.978,10.936-0.595,12.915-5.749c1.978-5.154-0.595-10.936-5.749-12.915c-3.989-1.532-8.113-2.837-12.252-3.879
	c-5.346-1.346-8.601-6.789-7.256-12.133c0.652-2.59,2.272-4.77,4.564-6.141c2.291-1.37,4.978-1.767,7.568-1.114
	c22.367,5.63,42.855,17.27,59.248,33.662c16.391,16.391,28.031,36.879,33.662,59.25c0.652,2.588,0.256,5.276-1.114,7.567
	c-1.37,2.292-3.552,3.913-6.142,4.565c-3.445,0.866-7.004-0.119-9.522-2.637c-1.266-1.265-2.168-2.863-2.611-4.617
	c-1.469-5.839-3.45-11.599-5.885-17.119c-2.229-5.051-8.131-7.339-13.181-5.111c-5.051,2.228-7.339,8.13-5.111,13.181
	c1.982,4.493,3.594,9.18,4.79,13.932c1.324,5.257,4.042,10.054,7.861,13.873c5.681,5.68,13.412,8.784,21.288,8.784
	c2.422,0,4.858-0.294,7.252-0.897c7.768-1.955,14.309-6.818,18.42-13.694c4.11-6.875,5.297-14.94,3.342-22.707
	C360.849,226.086,347.393,202.397,328.449,183.452z"/>
<path d="M383.458,130.537c-34.398-34.397-80.013-55.473-128.445-59.346c-7.98-0.642-15.74,1.87-21.838,7.065
	c-6.098,5.195-9.807,12.453-10.446,20.438c-0.702,8.773,2.468,17.375,8.696,23.602c5.031,5.031,11.71,8.115,18.807,8.682
	c23.349,1.867,46.175,9.508,66.009,22.097c4.66,2.959,10.837,1.578,13.797-3.083c2.958-4.661,1.578-10.838-3.083-13.797
	c-22.571-14.326-48.55-23.022-75.131-25.147c-3.03-0.242-5.079-1.705-6.264-2.89c-2.079-2.078-3.137-4.947-2.903-7.872
	c0.439-5.495,5.254-9.613,10.762-9.167c43.699,3.495,84.861,22.513,115.901,53.554c30.47,30.47,49.422,70.845,53.363,113.689
	c0.245,2.659-0.561,5.253-2.268,7.306s-4.111,3.318-6.77,3.563c-2.658,0.244-5.254-0.561-7.307-2.268
	c-2.053-1.707-3.318-4.111-3.563-6.77c-2.308-25.087-10.544-49.738-23.817-71.286c-2.896-4.701-9.055-6.164-13.754-3.269
	c-4.7,2.895-6.165,9.053-3.269,13.754c11.665,18.94,18.904,40.597,20.931,62.633c0.733,7.977,4.529,15.191,10.689,20.312
	c5.436,4.519,12.137,6.933,19.121,6.932c0.929,0,1.863-0.043,2.8-0.129c7.977-0.733,15.19-4.529,20.312-10.689
	c5.122-6.16,7.538-13.945,6.803-21.921C438.225,209.047,417.224,164.302,383.458,130.537z"/>
<path d="M437.106,74.794C389.611,27.298,326.468,0.736,259.312,0.001c-8.04-0.075-15.574,2.95-21.299,8.552
	c-5.726,5.602-8.928,13.098-9.014,21.107c-0.089,8.135,3.03,15.782,8.782,21.535c5.577,5.576,12.991,8.695,20.877,8.781
	c51.383,0.562,99.696,20.886,136.039,57.229c36.342,36.341,56.666,84.654,57.229,136.036c0.087,8.01,3.289,15.506,9.014,21.108
	c5.646,5.524,13.078,8.554,20.962,8.554c0.113,0,0.227-0.001,0.339-0.002c16.535-0.182,29.839-13.781,29.657-30.315
	C511.164,185.43,484.603,122.29,437.106,74.794z M482.021,262.908c-2.661,0.042-5.191-0.983-7.1-2.851
	c-1.908-1.867-2.976-4.365-3.004-7.035c-0.621-56.641-23.024-109.895-63.082-149.956c-40.061-40.06-93.318-62.464-149.958-63.082
	c-2.629-0.029-5.1-1.068-6.958-2.927c-1.917-1.917-2.957-4.466-2.928-7.179c0.029-2.669,1.096-5.168,3.005-7.035
	c1.882-1.841,4.359-2.852,6.987-2.852c0.037,0,0.075,0,0.112,0c61.899,0.677,120.098,25.159,163.875,68.938
	c43.778,43.778,68.26,101.975,68.937,163.873C491.967,258.315,487.533,262.848,482.021,262.908z"/>
<path d="M315.345,372.423c0.009-0.074,0.018-0.149,0.026-0.223c0.701-6.029,1.073-12.157,1.073-18.371
	c0-41.046-15.719-78.487-41.45-106.63c-0.468-0.636-1.006-1.22-1.611-1.731c-16.72-17.753-37.484-31.657-60.811-40.209
	c-0.464-0.2-0.938-0.375-1.423-0.503c-16.543-5.885-34.34-9.1-52.875-9.1c-20.7,0-40.48,4.003-58.616,11.266
	c-0.53,0.166-1.044,0.378-1.541,0.631c-22.257,9.187-41.974,23.31-57.782,41.001c-0.576,0.516-1.09,1.094-1.531,1.725
	c-24.099,27.766-38.702,63.984-38.702,103.55c0,5.937,0.34,11.794,0.981,17.563c0.005,0.056,0.013,0.112,0.019,0.167
	c2.481,22.142,9.545,42.917,20.229,61.348c0.276,0.59,0.607,1.149,0.99,1.672c27.617,46.321,78.219,77.421,135.953,77.421
	c57.586,0,108.074-30.937,135.739-77.059c0.423-0.57,0.788-1.181,1.083-1.828C305.705,414.87,312.769,394.324,315.345,372.423z
	 M225.183,430.24l-27.158-41.791l14.458-44.497l43.039-9.663l39.355,40.411c-2.465,16.2-7.755,31.482-15.347,45.331L225.183,430.24z
	 M91.376,430.216L36.855,419.75c-7.615-13.97-12.883-29.394-15.286-45.737l39.394-39.738l43.097,9.676l14.458,44.497L91.376,430.216
	z M40.87,281.036l6.215,38.843l-26.822,27.056C21.453,322.842,28.848,300.357,40.87,281.036z M296.301,347.508l-27.037-27.764
	l4.797-41.238C287.133,298.532,295.154,322.139,296.301,347.508z M136.761,379.9l-13.203-40.635l17.283-12.557l17.283-12.557
	l34.567,25.114L179.489,379.9L136.761,379.9L136.761,379.9z M256.469,256.713l-6.793,58.399l-42.72,9.591l-38.541-28.002v-41.177
	l41.6-29.815C227.575,232.827,243.351,243.451,256.469,256.713z M185.867,218.418l-28.021,20.083l-31.326-19.167
	c10.199-2.407,20.828-3.688,31.752-3.688C167.719,215.648,176.947,216.603,185.867,218.418z M101.872,227.692l46.257,28.302v40.707
	l-38.541,28.002l-43.029-9.661l-8.927-55.795C70.076,246.014,85.089,235.225,101.872,227.692z M52.978,443.202l36.743,7.052
	l18.722,32.453C86.794,474.31,67.773,460.606,52.978,443.202z M135.831,490.177l-28.017-48.566l27.11-41.719h46.694l27.11,41.719
	l-28.013,48.564c-7.307,1.199-14.803,1.832-22.444,1.832C150.631,492.008,143.138,491.374,135.831,490.177z M208.103,482.707
	l18.707-32.431l36.583-6.871C248.624,460.712,229.667,474.341,208.103,482.707z"/>
<path d="M300.173,225.862c1.859-1.859,2.929-4.438,2.929-7.067s-1.07-5.208-2.929-7.067c-1.859-1.859-4.438-2.929-7.067-2.929
	c-2.629,0-5.208,1.07-7.067,2.929c-1.859,1.859-2.929,4.438-2.929,7.067s1.07,5.208,2.929,7.067
	c1.859,1.859,4.438,2.929,7.067,2.929C295.734,228.79,298.313,227.721,300.173,225.862z"/>
<path d="M355.191,172.942c1.859-1.859,2.919-4.428,2.919-7.067c0-2.629-1.06-5.208-2.919-7.067
	c-1.869-1.859-4.448-2.929-7.077-2.929c-2.629,0-5.208,1.07-7.067,2.929c-1.859,1.859-2.929,4.438-2.929,7.067
	c0,2.639,1.07,5.208,2.929,7.067c1.859,1.869,4.438,2.929,7.067,2.929C350.753,175.871,353.321,174.811,355.191,172.942z"/>
<g>
</g>
<g>
</g>
<g>
</g>
<g>
</g>
<g>
</g>
<g>
</g>
<g>
</g>
<g>
</g>
<g>
</g>
<g>
</g>
<g>
</g>
<g>
</g>
<g>
</g>
<g>
</g>
<g>
</g>
</svg>
